<svg xmlns="http://www.w3.org/2000/svg" viewBox="0 0 239 192"><title>assistive technologdy</title><g id="Layer_2" data-name="Layer 2"><g id="Layer_1-2" data-name="Layer 1"><rect x="1.5" y="27.5" width="93" height="163" rx="6" style="fill:#fff;stroke:#662d91;stroke-miterlimit:10;stroke-width:3px"/><rect x="15" y="44" width="65" height="33" style="fill:#662d91"/><rect x="15" y="134" width="65" height="36" style="fill:#662d91"/><rect x="9" y="86" width="13" height="39" style="fill:#662d91"/><rect x="30" y="86" width="35" height="39" style="fill:#662d91"/><rect x="73" y="86" width="12" height="39" style="fill:#662d91"/><circle cx="49" cy="34" r="2" style="fill:#662d91"/><rect x="9.5" y="39" width="76" height="131.5" style="fill:none;stroke:#662d91;stroke-miterlimit:10"/><ellipse cx="47.5" cy="179" rx="6" ry="5.5" style="fill:#fff;stroke:#662d91;stroke-miterlimit:10"/><path d="M234.5,48.5H133.28a30.45,30.45,0,0,1-30.78,15,27.32,27.32,0,0,0,12.62-15,25.13,25.13,0,0,1-6.62,0,4.74,4.74,0,0,1-2.83-1.17,4,4,0,0,1-1.17-2.83V4.5a4,4,0,0,1,4-4h126a4,4,0,0,1,4,4v40a5.7,5.7,0,0,1-4,4Z" style="fill:#fff;stroke:#666;stroke-miterlimit:10"/><text transform="translate(114.71 19.72)" style="font-size:12px;fill:#2d2d2d;font-family:Georgia">You are currently <tspan x="0" y="18">on a Heading Level 1.</tspan></text></g></g></svg>