<svg xmlns="http://www.w3.org/2000/svg" viewBox="0 0 239 192"><title>text-reader</title><g id="Layer_2" data-name="Layer 2"><g id="Layer_1-2" data-name="Layer 1"><rect x="1.5" y="27.5" width="93" height="163" rx="6" style="fill:#fff;stroke:#662d91;stroke-miterlimit:10;stroke-width:3px"/><circle cx="49" cy="34" r="2" style="fill:#662d91"/><rect x="9.5" y="39" width="76" height="131.5" style="fill:none;stroke:#662d91;stroke-miterlimit:10"/><ellipse cx="47.5" cy="179" rx="6" ry="5.5" style="fill:#fff;stroke:#662d91;stroke-miterlimit:10"/><path d="M234.5,48.5H133.28a30.45,30.45,0,0,1-30.78,15,27.32,27.32,0,0,0,12.62-15,25.13,25.13,0,0,1-6.62,0,4.74,4.74,0,0,1-2.83-1.17,4,4,0,0,1-1.17-2.83V4.5a4,4,0,0,1,4-4h126a4,4,0,0,1,4,4v40a5.7,5.7,0,0,1-4,4Z" style="fill:#fff;stroke:#666;stroke-miterlimit:10"/><text transform="translate(114.71 20.72)" style="font-size:10px;font-family:Georgia">The sun was shining, and <tspan x="0" y="12">the grass was very green...</tspan></text><text/><text transform="translate(14.45 48.54)" style="font-size:4px;font-family:Georgia">“Good Morning!&quot; said Bilbo, and he <tspan x="0" y="6">meant it. The sun was shining, and </tspan><tspan x="0" y="12">the grass was very green. But </tspan><tspan x="0" y="18">Gandalf looked at him from under </tspan><tspan x="0" y="24">long bushy eyebrows that stuck out </tspan><tspan x="0" y="30">further than the brim of his shady </tspan><tspan x="0" y="36">hat.</tspan><tspan x="0" y="48">&quot;What do you mean?&quot; he said. &quot;Do </tspan><tspan x="0" y="54">you wish me a good morning, or </tspan><tspan x="0" y="60">mean that it is a good morning </tspan><tspan x="0" y="66">whether I want it or not; or that you </tspan><tspan x="0" y="72">feel good this morning; or that it is a </tspan><tspan x="0" y="78">morning to be good on?&quot;</tspan><tspan x="0" y="90">&quot;All of them at once,&quot; said Bilbo. </tspan><tspan x="0" y="96">&quot;And a very fine morning for a pipe </tspan><tspan x="0" y="102">of tobacco out of doors, into the </tspan><tspan x="0" y="108">bargain.</tspan><tspan x="0" y="120">&quot;Good morning!&quot; he said at last. &quot;We </tspan></text></g></g></svg>