<svg width="128" height="128" xmlns="http://www.w3.org/2000/svg"><path d="M60 36h4v4h-4zM92 36h4v4h-4zM60 40h4v4h-4zM64 40h4v4h-4zM88 40h4v4h-4zM92 40h4v4h-4zM60 44h4v4h-4zM64 44h4v4h-4zM68 44h4v4h-4zM84 44h4v4h-4zM88 44h4v4h-4zM92 44h4v4h-4zM60 48h4v4h-4zM64 48h4v4h-4zM68 48h4v4h-4zM72 48h4v4h-4zM76 48h4v4h-4zM80 48h4v4h-4zM84 48h4v4h-4zM88 48h4v4h-4zM92 48h4v4h-4zM24 52h4v4h-4zM28 52h4v4h-4zM32 52h4v4h-4zM36 52h4v4h-4zM40 52h4v4h-4zM44 52h4v4h-4zM48 52h4v4h-4zM52 52h4v4h-4zM56 52h4v4h-4zM60 52h4v4h-4zM64 52h4v4h-4zM68 52h4v4h-4zM72 52h4v4h-4zM76 52h4v4h-4zM80 52h4v4h-4zM84 52h4v4h-4zM88 52h4v4h-4zM92 52h4v4h-4zM20 56h4v4h-4zM24 56h4v4h-4zM28 56h4v4h-4zM32 56h4v4h-4zM36 56h4v4h-4zM40 56h4v4h-4zM44 56h4v4h-4zM48 56h4v4h-4zM52 56h4v4h-4zM56 56h4v4h-4zM60 56h4v4h-4zM64 56h4v4h-4zM68 56h4v4h-4zM72 56h4v4h-4zM76 56h4v4h-4zM80 56h4v4h-4zM84 56h4v4h-4zM88 56h4v4h-4zM92 56h4v4h-4zM20 60h4v4h-4zM24 60h4v4h-4zM28 60h4v4h-4zM32 60h4v4h-4zM36 60h4v4h-4zM40 60h4v4h-4zM44 60h4v4h-4zM48 60h4v4h-4zM52 60h4v4h-4zM56 60h4v4h-4zM60 60h4v4h-4zM64 60h4v4h-4zM68 60h4v4h-4zM72 60h4v4h-4z"/><path fill="#696A6A" d="M76 60h4v4h-4z"/><path d="M80 60h4v4h-4zM84 60h4v4h-4zM88 60h4v4h-4zM20 64h4v4h-4zM24 64h4v4h-4zM28 64h4v4h-4zM32 64h4v4h-4zM36 64h4v4h-4zM40 64h4v4h-4zM44 64h4v4h-4zM48 64h4v4h-4zM52 64h4v4h-4zM56 64h4v4h-4zM60 64h4v4h-4zM64 64h4v4h-4zM68 64h4v4h-4zM72 64h4v4h-4zM76 64h4v4h-4zM80 64h4v4h-4zM84 64h4v4h-4zM20 68h4v4h-4zM24 68h4v4h-4zM28 68h4v4h-4zM32 68h4v4h-4zM36 68h4v4h-4zM40 68h4v4h-4zM44 68h4v4h-4zM48 68h4v4h-4zM52 68h4v4h-4zM56 68h4v4h-4zM60 68h4v4h-4zM64 68h4v4h-4zM68 68h4v4h-4zM72 68h4v4h-4zM76 68h4v4h-4zM80 68h4v4h-4zM84 68h4v4h-4zM88 68h4v4h-4zM92 68h4v4h-4zM24 72h4v4h-4zM28 72h4v4h-4zM32 72h4v4h-4zM36 72h4v4h-4zM40 72h4v4h-4zM44 72h4v4h-4zM48 72h4v4h-4zM52 72h4v4h-4zM56 72h4v4h-4zM60 72h4v4h-4zM64 72h4v4h-4zM68 72h4v4h-4zM72 72h4v4h-4zM76 72h4v4h-4zM80 72h4v4h-4zM84 72h4v4h-4zM88 72h4v4h-4zM92 72h4v4h-4zM28 76h4v4h-4zM32 76h4v4h-4zM36 76h4v4h-4zM40 76h4v4h-4zM44 76h4v4h-4zM48 76h4v4h-4zM52 76h4v4h-4zM56 76h4v4h-4zM60 76h4v4h-4zM64 76h4v4h-4zM68 76h4v4h-4zM72 76h4v4h-4zM76 76h4v4h-4zM80 76h4v4h-4zM84 76h4v4h-4zM88 76h4v4h-4zM40 80h4v4h-4zM44 80h4v4h-4zM48 80h4v4h-4zM52 80h4v4h-4z"/></svg>