<svg xmlns="http://www.w3.org/2000/svg" xmlns:xlink="http://www.w3.org/1999/xlink" viewBox="0 0 26 18"><defs><clipPath id="clip-path"><rect width="26" height="18" style="fill:none"/></clipPath></defs><title>spring</title><g id="Layer_2" data-name="Layer 2"><g id="Layer_1-2" data-name="Layer 1"><g id="Artwork_10" data-name="Artwork 10"><g style="clip-path:url(#clip-path)"><rect width="2" height="2" style="fill:#4b692f"/><rect x="2" width="2" height="2" style="fill:#6abe30"/><rect x="4" width="2" height="2" style="fill:#6abe30"/><rect x="6" width="2" height="2" style="fill:#6abe30"/><rect x="2" y="2" width="2" height="2" style="fill:#4b692f"/><rect x="4" y="2" width="2" height="2" style="fill:#6abe30"/><rect x="6" y="2" width="2" height="2" style="fill:#ac3232"/><rect x="8" y="2" width="2" height="2" style="fill:#ac3232"/><rect x="10" y="2" width="2" height="2" style="fill:#ac3232"/><rect x="12" y="2" width="2" height="2" style="fill:#ac3232"/><rect x="14" y="2" width="2" height="2" style="fill:#ac3232"/><rect x="16" y="2" width="2" height="2" style="fill:#ac3232"/><rect x="4" y="4" width="2" height="2" style="fill:#ac3232"/><rect x="6" y="4" width="2" height="2" style="fill:#ac3232"/><rect x="8" y="4" width="2" height="2" style="fill:#ac3232"/><rect x="10" y="4" width="2" height="2" style="fill:#ac3232"/><rect x="12" y="4" width="2" height="2" style="fill:#ac3232"/><rect x="14" y="4" width="2" height="2" style="fill:#ac3232"/><rect x="16" y="4" width="2" height="2" style="fill:#ac3232"/><rect x="18" y="4" width="2" height="2" style="fill:#ac3232"/><rect x="20" y="4" width="2" height="2" style="fill:#6abe30"/><rect x="2" y="6" width="2" height="2" style="fill:#ac3232"/><rect x="4" y="6" width="2" height="2" style="fill:#d95763"/><rect x="6" y="6" width="2" height="2" style="fill:#ac3232"/><rect x="8" y="6" width="2" height="2" style="fill:#ac3232"/><rect x="10" y="6" width="2" height="2" style="fill:#ac3232"/><rect x="12" y="6" width="2" height="2" style="fill:#ac3232"/><rect x="14" y="6" width="2" height="2" style="fill:#ac3232"/><rect x="16" y="6" width="2" height="2" style="fill:#ac3232"/><rect x="18" y="6" width="2" height="2" style="fill:#ac3232"/><rect x="20" y="6" width="2" height="2" style="fill:#6abe30"/><rect x="22" y="6" width="2" height="2" style="fill:#6abe30"/><rect x="2" y="8" width="2" height="2" style="fill:#ac3232"/><rect x="4" y="8" width="2" height="2" style="fill:#d95763"/><rect x="6" y="8" width="2" height="2" style="fill:#ac3232"/><rect x="8" y="8" width="2" height="2" style="fill:#ac3232"/><rect x="10" y="8" width="2" height="2" style="fill:#ac3232"/><rect x="12" y="8" width="2" height="2" style="fill:#ac3232"/><rect x="14" y="8" width="2" height="2" style="fill:#ac3232"/><rect x="16" y="8" width="2" height="2" style="fill:#ac3232"/><rect x="18" y="8" width="2" height="2" style="fill:#ac3232"/><rect x="20" y="8" width="2" height="2" style="fill:#6abe30"/><rect x="22" y="8" width="2" height="2" style="fill:#6abe30"/><rect x="24" y="8" width="2" height="2" style="fill:#6abe30"/><rect x="2" y="10" width="2" height="2" style="fill:#ac3232"/><rect x="4" y="10" width="2" height="2" style="fill:#d95763"/><rect x="6" y="10" width="2" height="2" style="fill:#ac3232"/><rect x="8" y="10" width="2" height="2" style="fill:#ac3232"/><rect x="10" y="10" width="2" height="2" style="fill:#ac3232"/><rect x="12" y="10" width="2" height="2" style="fill:#ac3232"/><rect x="14" y="10" width="2" height="2" style="fill:#ac3232"/><rect x="16" y="10" width="2" height="2" style="fill:#ac3232"/><rect x="18" y="10" width="2" height="2" style="fill:#ac3232"/><rect x="20" y="10" width="2" height="2" style="fill:#4b692f"/><rect x="22" y="10" width="2" height="2" style="fill:#6abe30"/><rect x="24" y="10" width="2" height="2" style="fill:#6abe30"/><rect x="2" y="12" width="2" height="2" style="fill:#ac3232"/><rect x="4" y="12" width="2" height="2" style="fill:#d95763"/><rect x="6" y="12" width="2" height="2" style="fill:#d95763"/><rect x="8" y="12" width="2" height="2" style="fill:#ac3232"/><rect x="10" y="12" width="2" height="2" style="fill:#ac3232"/><rect x="12" y="12" width="2" height="2" style="fill:#ac3232"/><rect x="14" y="12" width="2" height="2" style="fill:#ac3232"/><rect x="16" y="12" width="2" height="2" style="fill:#ac3232"/><rect x="18" y="12" width="2" height="2" style="fill:#ac3232"/><rect x="22" y="12" width="2" height="2" style="fill:#4b692f"/><rect x="24" y="12" width="2" height="2" style="fill:#4b692f"/><rect x="4" y="14" width="2" height="2" style="fill:#ac3232"/><rect x="6" y="14" width="2" height="2" style="fill:#d95763"/><rect x="8" y="14" width="2" height="2" style="fill:#d95763"/><rect x="10" y="14" width="2" height="2" style="fill:#ac3232"/><rect x="12" y="14" width="2" height="2" style="fill:#ac3232"/><rect x="14" y="14" width="2" height="2" style="fill:#ac3232"/><rect x="16" y="14" width="2" height="2" style="fill:#ac3232"/><rect x="6" y="16" width="2" height="2" style="fill:#ac3232"/><rect x="8" y="16" width="2" height="2" style="fill:#ac3232"/><rect x="10" y="16" width="2" height="2" style="fill:#ac3232"/><rect x="12" y="16" width="2" height="2" style="fill:#ac3232"/></g></g></g></g></svg>