<svg xmlns="http://www.w3.org/2000/svg" xmlns:xlink="http://www.w3.org/1999/xlink" viewBox="0 0 18 16"><defs><clipPath id="clip-path"><rect width="18" height="16" style="fill:none"/></clipPath></defs><title>heart</title><g id="Layer_2" data-name="Layer 2"><g id="Layer_1-2" data-name="Layer 1"><g id="Artwork_4" data-name="Artwork 4"><g style="clip-path:url(#clip-path)"><rect x="2" width="2" height="2" style="fill:#d95763"/><rect x="4" width="2" height="2" style="fill:#d95763"/><rect x="12" width="2" height="2" style="fill:#d95763"/><rect x="14" width="2" height="2" style="fill:#d95763"/><rect y="2" width="2" height="2" style="fill:#d95763"/><rect x="2" y="2" width="2" height="2" style="fill:#d95763"/><rect x="4" y="2" width="2" height="2" style="fill:#d95763"/><rect x="6" y="2" width="2" height="2" style="fill:#d95763"/><rect x="10" y="2" width="2" height="2" style="fill:#d95763"/><rect x="12" y="2" width="2" height="2" style="fill:#d95763"/><rect x="14" y="2" width="2" height="2" style="fill:#d95763"/><rect x="16" y="2" width="2" height="2" style="fill:#d95763"/><rect y="4" width="2" height="2" style="fill:#d95763"/><rect x="2" y="4" width="2" height="2" style="fill:#d95763"/><rect x="4" y="4" width="2" height="2" style="fill:#d95763"/><rect x="6" y="4" width="2" height="2" style="fill:#d95763"/><rect x="8" y="4" width="2" height="2" style="fill:#d95763"/><rect x="10" y="4" width="2" height="2" style="fill:#d95763"/><rect x="12" y="4" width="2" height="2" style="fill:#d95763"/><rect x="14" y="4" width="2" height="2" style="fill:#d95763"/><rect x="16" y="4" width="2" height="2" style="fill:#d95763"/><rect y="6" width="2" height="2" style="fill:#d95763"/><rect x="2" y="6" width="2" height="2" style="fill:#d95763"/><rect x="4" y="6" width="2" height="2" style="fill:#d95763"/><rect x="6" y="6" width="2" height="2" style="fill:#d95763"/><rect x="8" y="6" width="2" height="2" style="fill:#d95763"/><rect x="10" y="6" width="2" height="2" style="fill:#d95763"/><rect x="12" y="6" width="2" height="2" style="fill:#d95763"/><rect x="14" y="6" width="2" height="2" style="fill:#d95763"/><rect x="16" y="6" width="2" height="2" style="fill:#d95763"/><rect x="2" y="8" width="2" height="2" style="fill:#d95763"/><rect x="4" y="8" width="2" height="2" style="fill:#d95763"/><rect x="6" y="8" width="2" height="2" style="fill:#d95763"/><rect x="8" y="8" width="2" height="2" style="fill:#d95763"/><rect x="10" y="8" width="2" height="2" style="fill:#d95763"/><rect x="12" y="8" width="2" height="2" style="fill:#d95763"/><rect x="14" y="8" width="2" height="2" style="fill:#d95763"/><rect x="4" y="10" width="2" height="2" style="fill:#d95763"/><rect x="6" y="10" width="2" height="2" style="fill:#d95763"/><rect x="8" y="10" width="2" height="2" style="fill:#d95763"/><rect x="10" y="10" width="2" height="2" style="fill:#d95763"/><rect x="12" y="10" width="2" height="2" style="fill:#d95763"/><rect x="6" y="12" width="2" height="2" style="fill:#d95763"/><rect x="8" y="12" width="2" height="2" style="fill:#d95763"/><rect x="10" y="12" width="2" height="2" style="fill:#d95763"/><rect x="8" y="14" width="2" height="2" style="fill:#d95763"/></g></g></g></g></svg>