<?xml version="1.0" encoding="UTF-8" ?>
<svg version="1.1" width="116" height="208" xmlns="http://www.w3.org/2000/svg">
<rect x="24" y="4" width="4" height="4" fill="#5B6EE1" />
<rect x="28" y="4" width="4" height="4" fill="#5B6EE1" />
<rect x="80" y="4" width="4" height="4" fill="#5B6EE1" />
<rect x="84" y="4" width="4" height="4" fill="#5B6EE1" />
<rect x="16" y="8" width="4" height="4" fill="#639BFF" />
<rect x="20" y="8" width="4" height="4" fill="#5B6EE1" />
<rect x="24" y="8" width="4" height="4" fill="#5B6EE1" />
<rect x="28" y="8" width="4" height="4" fill="#5B6EE1" />
<rect x="32" y="8" width="4" height="4" fill="#5B6EE1" />
<rect x="36" y="8" width="4" height="4" fill="#5B6EE1" />
<rect x="72" y="8" width="4" height="4" fill="#5B6EE1" />
<rect x="76" y="8" width="4" height="4" fill="#5B6EE1" />
<rect x="80" y="8" width="4" height="4" fill="#5B6EE1" />
<rect x="84" y="8" width="4" height="4" fill="#5B6EE1" />
<rect x="88" y="8" width="4" height="4" fill="#5B6EE1" />
<rect x="92" y="8" width="4" height="4" fill="#639BFF" />
<rect x="12" y="12" width="4" height="4" fill="#5B6EE1" />
<rect x="16" y="12" width="4" height="4" fill="#639BFF" />
<rect x="20" y="12" width="4" height="4" fill="#639BFF" />
<rect x="24" y="12" width="4" height="4" fill="#639BFF" />
<rect x="28" y="12" width="4" height="4" fill="#639BFF" />
<rect x="32" y="12" width="4" height="4" fill="#639BFF" />
<rect x="36" y="12" width="4" height="4" fill="#5B6EE1" />
<rect x="40" y="12" width="4" height="4" fill="#5B6EE1" />
<rect x="44" y="12" width="4" height="4" fill="#5B6EE1" />
<rect x="64" y="12" width="4" height="4" fill="#5B6EE1" />
<rect x="68" y="12" width="4" height="4" fill="#5B6EE1" />
<rect x="72" y="12" width="4" height="4" fill="#5B6EE1" />
<rect x="76" y="12" width="4" height="4" fill="#639BFF" />
<rect x="80" y="12" width="4" height="4" fill="#639BFF" />
<rect x="84" y="12" width="4" height="4" fill="#639BFF" />
<rect x="88" y="12" width="4" height="4" fill="#639BFF" />
<rect x="92" y="12" width="4" height="4" fill="#639BFF" />
<rect x="96" y="12" width="4" height="4" fill="#5B6EE1" />
<rect x="8" y="16" width="4" height="4" fill="#5B6EE1" />
<rect x="12" y="16" width="4" height="4" fill="#5B6EE1" />
<rect x="16" y="16" width="4" height="4" fill="#5B6EE1" />
<rect x="20" y="16" width="4" height="4" fill="#639BFF" />
<rect x="24" y="16" width="4" height="4" fill="#639BFF" />
<rect x="28" y="16" width="4" height="4" fill="#639BFF" />
<rect x="32" y="16" width="4" height="4" fill="#639BFF" />
<rect x="36" y="16" width="4" height="4" fill="#639BFF" />
<rect x="40" y="16" width="4" height="4" fill="#639BFF" />
<rect x="44" y="16" width="4" height="4" fill="#639BFF" />
<rect x="48" y="16" width="4" height="4" fill="#639BFF" />
<rect x="52" y="16" width="4" height="4" fill="#639BFF" />
<rect x="56" y="16" width="4" height="4" fill="#639BFF" />
<rect x="60" y="16" width="4" height="4" fill="#639BFF" />
<rect x="64" y="16" width="4" height="4" fill="#639BFF" />
<rect x="68" y="16" width="4" height="4" fill="#639BFF" />
<rect x="72" y="16" width="4" height="4" fill="#639BFF" />
<rect x="76" y="16" width="4" height="4" fill="#639BFF" />
<rect x="80" y="16" width="4" height="4" fill="#639BFF" />
<rect x="84" y="16" width="4" height="4" fill="#639BFF" />
<rect x="88" y="16" width="4" height="4" fill="#639BFF" />
<rect x="92" y="16" width="4" height="4" fill="#5B6EE1" />
<rect x="96" y="16" width="4" height="4" fill="#5B6EE1" />
<rect x="100" y="16" width="4" height="4" fill="#5B6EE1" />
<rect x="12" y="20" width="4" height="4" fill="#5B6EE1" />
<rect x="16" y="20" width="4" height="4" fill="#5B6EE1" />
<rect x="20" y="20" width="4" height="4" fill="#5B6EE1" />
<rect x="24" y="20" width="4" height="4" fill="#5B6EE1" />
<rect x="28" y="20" width="4" height="4" fill="#5B6EE1" />
<rect x="32" y="20" width="4" height="4" fill="#5B6EE1" />
<rect x="36" y="20" width="4" height="4" fill="#639BFF" />
<rect x="40" y="20" width="4" height="4" fill="#639BFF" />
<rect x="44" y="20" width="4" height="4" fill="#639BFF" />
<rect x="48" y="20" width="4" height="4" fill="#639BFF" />
<rect x="52" y="20" width="4" height="4" fill="#639BFF" />
<rect x="56" y="20" width="4" height="4" fill="#639BFF" />
<rect x="60" y="20" width="4" height="4" fill="#639BFF" />
<rect x="64" y="20" width="4" height="4" fill="#639BFF" />
<rect x="68" y="20" width="4" height="4" fill="#5B6EE1" />
<rect x="72" y="20" width="4" height="4" fill="#5B6EE1" />
<rect x="76" y="20" width="4" height="4" fill="#5B6EE1" />
<rect x="80" y="20" width="4" height="4" fill="#5B6EE1" />
<rect x="84" y="20" width="4" height="4" fill="#5B6EE1" />
<rect x="88" y="20" width="4" height="4" fill="#5B6EE1" />
<rect x="92" y="20" width="4" height="4" fill="#5B6EE1" />
<rect x="96" y="20" width="4" height="4" fill="#5B6EE1" />
<rect x="20" y="24" width="4" height="4" fill="#5B6EE1" />
<rect x="24" y="24" width="4" height="4" fill="#5B6EE1" />
<rect x="28" y="24" width="4" height="4" fill="#5B6EE1" />
<rect x="32" y="24" width="4" height="4" fill="#5B6EE1" />
<rect x="36" y="24" width="4" height="4" fill="#5B6EE1" />
<rect x="40" y="24" width="4" height="4" fill="#5B6EE1" />
<rect x="44" y="24" width="4" height="4" fill="#5B6EE1" />
<rect x="48" y="24" width="4" height="4" fill="#5B6EE1" />
<rect x="52" y="24" width="4" height="4" fill="#5B6EE1" />
<rect x="56" y="24" width="4" height="4" fill="#5B6EE1" />
<rect x="60" y="24" width="4" height="4" fill="#5B6EE1" />
<rect x="64" y="24" width="4" height="4" fill="#5B6EE1" />
<rect x="68" y="24" width="4" height="4" fill="#5B6EE1" />
<rect x="72" y="24" width="4" height="4" fill="#5B6EE1" />
<rect x="76" y="24" width="4" height="4" fill="#5B6EE1" />
<rect x="80" y="24" width="4" height="4" fill="#5B6EE1" />
<rect x="84" y="24" width="4" height="4" fill="#5B6EE1" />
<rect x="88" y="24" width="4" height="4" fill="#5B6EE1" />
<rect x="32" y="28" width="4" height="4" fill="#D9A066" />
<rect x="36" y="28" width="4" height="4" fill="#5B6EE1" />
<rect x="40" y="28" width="4" height="4" fill="#5B6EE1" />
<rect x="44" y="28" width="4" height="4" fill="#5B6EE1" />
<rect x="48" y="28" width="4" height="4" fill="#5B6EE1" />
<rect x="52" y="28" width="4" height="4" fill="#5B6EE1" />
<rect x="56" y="28" width="4" height="4" fill="#5B6EE1" />
<rect x="60" y="28" width="4" height="4" fill="#5B6EE1" />
<rect x="64" y="28" width="4" height="4" fill="#5B6EE1" />
<rect x="68" y="28" width="4" height="4" fill="#5B6EE1" />
<rect x="72" y="28" width="4" height="4" fill="#5B6EE1" />
<rect x="76" y="28" width="4" height="4" fill="#D9A066" />
<rect x="32" y="32" width="4" height="4" fill="#D9A066" />
<rect x="36" y="32" width="4" height="4" fill="#D9A066" />
<rect x="40" y="32" width="4" height="4" fill="#D9A066" />
<rect x="44" y="32" width="4" height="4" fill="#D9A066" />
<rect x="48" y="32" width="4" height="4" fill="#D9A066" />
<rect x="52" y="32" width="4" height="4" fill="#D9A066" />
<rect x="56" y="32" width="4" height="4" fill="#D9A066" />
<rect x="60" y="32" width="4" height="4" fill="#D9A066" />
<rect x="64" y="32" width="4" height="4" fill="#D9A066" />
<rect x="68" y="32" width="4" height="4" fill="#D9A066" />
<rect x="72" y="32" width="4" height="4" fill="#D9A066" />
<rect x="76" y="32" width="4" height="4" fill="#D9A066" />
<rect x="32" y="36" width="4" height="4" fill="#EEC39A" />
<rect x="36" y="36" width="4" height="4" fill="#EEC39A" />
<rect x="40" y="36" width="4" height="4" fill="#EEC39A" />
<rect x="44" y="36" width="4" height="4" fill="#D9A066" />
<rect x="48" y="36" width="4" height="4" fill="#D9A066" />
<rect x="52" y="36" width="4" height="4" fill="#D9A066" />
<rect x="56" y="36" width="4" height="4" fill="#D9A066" />
<rect x="60" y="36" width="4" height="4" fill="#D9A066" />
<rect x="64" y="36" width="4" height="4" fill="#D9A066" />
<rect x="68" y="36" width="4" height="4" fill="#EEC39A" />
<rect x="72" y="36" width="4" height="4" fill="#EEC39A" />
<rect x="76" y="36" width="4" height="4" fill="#EEC39A" />
<rect x="32" y="40" width="4" height="4" fill="#D9A066" />
<rect x="36" y="40" width="4" height="4" fill="#D9A066" />
<rect x="40" y="40" width="4" height="4" fill="#D9A066" />
<rect x="44" y="40" width="4" height="4" fill="#EEC39A" />
<rect x="48" y="40" width="4" height="4" fill="#EEC39A" />
<rect x="52" y="40" width="4" height="4" fill="#EEC39A" />
<rect x="56" y="40" width="4" height="4" fill="#EEC39A" />
<rect x="60" y="40" width="4" height="4" fill="#EEC39A" />
<rect x="64" y="40" width="4" height="4" fill="#EEC39A" />
<rect x="68" y="40" width="4" height="4" fill="#D9A066" />
<rect x="72" y="40" width="4" height="4" fill="#D9A066" />
<rect x="76" y="40" width="4" height="4" fill="#D9A066" />
<rect x="32" y="44" width="4" height="4" fill="#D9A066" />
<rect x="36" y="44" width="4" height="4" fill="#D9A066" />
<rect x="40" y="44" width="4" height="4" fill="#D9A066" />
<rect x="44" y="44" width="4" height="4" fill="#D9A066" />
<rect x="48" y="44" width="4" height="4" fill="#D9A066" />
<rect x="52" y="44" width="4" height="4" fill="#D9A066" />
<rect x="56" y="44" width="4" height="4" fill="#D9A066" />
<rect x="60" y="44" width="4" height="4" fill="#D9A066" />
<rect x="64" y="44" width="4" height="4" fill="#D9A066" />
<rect x="68" y="44" width="4" height="4" fill="#D9A066" />
<rect x="72" y="44" width="4" height="4" fill="#D9A066" />
<rect x="76" y="44" width="4" height="4" fill="#D9A066" />
<rect x="32" y="48" width="4" height="4" fill="#EEC39A" />
<rect x="36" y="48" width="4" height="4" fill="#EEC39A" />
<rect x="40" y="48" width="4" height="4" fill="#EEC39A" />
<rect x="44" y="48" width="4" height="4" fill="#D9A066" />
<rect x="48" y="48" width="4" height="4" fill="#D9A066" />
<rect x="52" y="48" width="4" height="4" fill="#D9A066" />
<rect x="56" y="48" width="4" height="4" fill="#D9A066" />
<rect x="60" y="48" width="4" height="4" fill="#D9A066" />
<rect x="64" y="48" width="4" height="4" fill="#D9A066" />
<rect x="68" y="48" width="4" height="4" fill="#EEC39A" />
<rect x="72" y="48" width="4" height="4" fill="#EEC39A" />
<rect x="76" y="48" width="4" height="4" fill="#EEC39A" />
<rect x="32" y="52" width="4" height="4" fill="#D9A066" />
<rect x="36" y="52" width="4" height="4" fill="#D9A066" />
<rect x="40" y="52" width="4" height="4" fill="#D9A066" />
<rect x="44" y="52" width="4" height="4" fill="#EEC39A" />
<rect x="48" y="52" width="4" height="4" fill="#EEC39A" />
<rect x="52" y="52" width="4" height="4" fill="#EEC39A" />
<rect x="56" y="52" width="4" height="4" fill="#EEC39A" />
<rect x="60" y="52" width="4" height="4" fill="#EEC39A" />
<rect x="64" y="52" width="4" height="4" fill="#EEC39A" />
<rect x="68" y="52" width="4" height="4" fill="#D9A066" />
<rect x="72" y="52" width="4" height="4" fill="#D9A066" />
<rect x="76" y="52" width="4" height="4" fill="#D9A066" />
<rect x="32" y="56" width="4" height="4" fill="#D9A066" />
<rect x="36" y="56" width="4" height="4" fill="#D9A066" />
<rect x="40" y="56" width="4" height="4" fill="#D9A066" />
<rect x="44" y="56" width="4" height="4" fill="#D9A066" />
<rect x="48" y="56" width="4" height="4" fill="#D9A066" />
<rect x="52" y="56" width="4" height="4" fill="#D9A066" />
<rect x="56" y="56" width="4" height="4" fill="#D9A066" />
<rect x="60" y="56" width="4" height="4" fill="#D9A066" />
<rect x="64" y="56" width="4" height="4" fill="#D9A066" />
<rect x="68" y="56" width="4" height="4" fill="#D9A066" />
<rect x="72" y="56" width="4" height="4" fill="#D9A066" />
<rect x="76" y="56" width="4" height="4" fill="#D9A066" />
<rect x="32" y="60" width="4" height="4" fill="#EEC39A" />
<rect x="36" y="60" width="4" height="4" fill="#EEC39A" />
<rect x="40" y="60" width="4" height="4" fill="#EEC39A" />
<rect x="44" y="60" width="4" height="4" fill="#D9A066" />
<rect x="48" y="60" width="4" height="4" fill="#D9A066" />
<rect x="52" y="60" width="4" height="4" fill="#D9A066" />
<rect x="56" y="60" width="4" height="4" fill="#D9A066" />
<rect x="60" y="60" width="4" height="4" fill="#D9A066" />
<rect x="64" y="60" width="4" height="4" fill="#D9A066" />
<rect x="68" y="60" width="4" height="4" fill="#EEC39A" />
<rect x="72" y="60" width="4" height="4" fill="#EEC39A" />
<rect x="76" y="60" width="4" height="4" fill="#EEC39A" />
<rect x="32" y="64" width="4" height="4" fill="#D9A066" />
<rect x="36" y="64" width="4" height="4" fill="#D9A066" />
<rect x="40" y="64" width="4" height="4" fill="#D9A066" />
<rect x="44" y="64" width="4" height="4" fill="#EEC39A" />
<rect x="48" y="64" width="4" height="4" fill="#EEC39A" />
<rect x="52" y="64" width="4" height="4" fill="#EEC39A" />
<rect x="56" y="64" width="4" height="4" fill="#EEC39A" />
<rect x="60" y="64" width="4" height="4" fill="#EEC39A" />
<rect x="64" y="64" width="4" height="4" fill="#EEC39A" />
<rect x="68" y="64" width="4" height="4" fill="#D9A066" />
<rect x="72" y="64" width="4" height="4" fill="#D9A066" />
<rect x="76" y="64" width="4" height="4" fill="#D9A066" />
<rect x="32" y="68" width="4" height="4" fill="#D9A066" />
<rect x="36" y="68" width="4" height="4" fill="#D9A066" />
<rect x="40" y="68" width="4" height="4" fill="#D9A066" />
<rect x="44" y="68" width="4" height="4" fill="#D9A066" />
<rect x="48" y="68" width="4" height="4" fill="#D9A066" />
<rect x="52" y="68" width="4" height="4" fill="#D9A066" />
<rect x="56" y="68" width="4" height="4" fill="#D9A066" />
<rect x="60" y="68" width="4" height="4" fill="#D9A066" />
<rect x="64" y="68" width="4" height="4" fill="#D9A066" />
<rect x="68" y="68" width="4" height="4" fill="#D9A066" />
<rect x="72" y="68" width="4" height="4" fill="#D9A066" />
<rect x="76" y="68" width="4" height="4" fill="#D9A066" />
<rect x="32" y="72" width="4" height="4" fill="#EEC39A" />
<rect x="36" y="72" width="4" height="4" fill="#EEC39A" />
<rect x="40" y="72" width="4" height="4" fill="#EEC39A" />
<rect x="44" y="72" width="4" height="4" fill="#D9A066" />
<rect x="48" y="72" width="4" height="4" fill="#D9A066" />
<rect x="52" y="72" width="4" height="4" fill="#D9A066" />
<rect x="56" y="72" width="4" height="4" fill="#D9A066" />
<rect x="60" y="72" width="4" height="4" fill="#D9A066" />
<rect x="64" y="72" width="4" height="4" fill="#D9A066" />
<rect x="68" y="72" width="4" height="4" fill="#EEC39A" />
<rect x="72" y="72" width="4" height="4" fill="#EEC39A" />
<rect x="76" y="72" width="4" height="4" fill="#EEC39A" />
<rect x="32" y="76" width="4" height="4" fill="#D9A066" />
<rect x="36" y="76" width="4" height="4" fill="#D9A066" />
<rect x="40" y="76" width="4" height="4" fill="#D9A066" />
<rect x="44" y="76" width="4" height="4" fill="#EEC39A" />
<rect x="48" y="76" width="4" height="4" fill="#EEC39A" />
<rect x="52" y="76" width="4" height="4" fill="#EEC39A" />
<rect x="56" y="76" width="4" height="4" fill="#EEC39A" />
<rect x="60" y="76" width="4" height="4" fill="#EEC39A" />
<rect x="64" y="76" width="4" height="4" fill="#EEC39A" />
<rect x="68" y="76" width="4" height="4" fill="#D9A066" />
<rect x="72" y="76" width="4" height="4" fill="#D9A066" />
<rect x="76" y="76" width="4" height="4" fill="#D9A066" />
<rect x="32" y="80" width="4" height="4" fill="#D9A066" />
<rect x="36" y="80" width="4" height="4" fill="#D9A066" />
<rect x="40" y="80" width="4" height="4" fill="#D9A066" />
<rect x="44" y="80" width="4" height="4" fill="#D9A066" />
<rect x="48" y="80" width="4" height="4" fill="#D9A066" />
<rect x="52" y="80" width="4" height="4" fill="#D9A066" />
<rect x="56" y="80" width="4" height="4" fill="#D9A066" />
<rect x="60" y="80" width="4" height="4" fill="#D9A066" />
<rect x="64" y="80" width="4" height="4" fill="#D9A066" />
<rect x="68" y="80" width="4" height="4" fill="#D9A066" />
<rect x="72" y="80" width="4" height="4" fill="#D9A066" />
<rect x="76" y="80" width="4" height="4" fill="#D9A066" />
<rect x="32" y="84" width="4" height="4" fill="#EEC39A" />
<rect x="36" y="84" width="4" height="4" fill="#EEC39A" />
<rect x="40" y="84" width="4" height="4" fill="#EEC39A" />
<rect x="44" y="84" width="4" height="4" fill="#D9A066" />
<rect x="48" y="84" width="4" height="4" fill="#D9A066" />
<rect x="52" y="84" width="4" height="4" fill="#D9A066" />
<rect x="56" y="84" width="4" height="4" fill="#D9A066" />
<rect x="60" y="84" width="4" height="4" fill="#D9A066" />
<rect x="64" y="84" width="4" height="4" fill="#D9A066" />
<rect x="68" y="84" width="4" height="4" fill="#EEC39A" />
<rect x="72" y="84" width="4" height="4" fill="#EEC39A" />
<rect x="76" y="84" width="4" height="4" fill="#EEC39A" />
<rect x="32" y="88" width="4" height="4" fill="#D9A066" />
<rect x="36" y="88" width="4" height="4" fill="#D9A066" />
<rect x="40" y="88" width="4" height="4" fill="#D9A066" />
<rect x="44" y="88" width="4" height="4" fill="#EEC39A" />
<rect x="48" y="88" width="4" height="4" fill="#EEC39A" />
<rect x="52" y="88" width="4" height="4" fill="#EEC39A" />
<rect x="56" y="88" width="4" height="4" fill="#EEC39A" />
<rect x="60" y="88" width="4" height="4" fill="#EEC39A" />
<rect x="64" y="88" width="4" height="4" fill="#EEC39A" />
<rect x="68" y="88" width="4" height="4" fill="#D9A066" />
<rect x="72" y="88" width="4" height="4" fill="#D9A066" />
<rect x="76" y="88" width="4" height="4" fill="#D9A066" />
<rect x="32" y="92" width="4" height="4" fill="#D9A066" />
<rect x="36" y="92" width="4" height="4" fill="#D9A066" />
<rect x="40" y="92" width="4" height="4" fill="#D9A066" />
<rect x="44" y="92" width="4" height="4" fill="#D9A066" />
<rect x="48" y="92" width="4" height="4" fill="#D9A066" />
<rect x="52" y="92" width="4" height="4" fill="#D9A066" />
<rect x="56" y="92" width="4" height="4" fill="#D9A066" />
<rect x="60" y="92" width="4" height="4" fill="#D9A066" />
<rect x="64" y="92" width="4" height="4" fill="#D9A066" />
<rect x="68" y="92" width="4" height="4" fill="#D9A066" />
<rect x="72" y="92" width="4" height="4" fill="#D9A066" />
<rect x="76" y="92" width="4" height="4" fill="#D9A066" />
<rect x="32" y="96" width="4" height="4" fill="#EEC39A" />
<rect x="36" y="96" width="4" height="4" fill="#EEC39A" />
<rect x="40" y="96" width="4" height="4" fill="#EEC39A" />
<rect x="44" y="96" width="4" height="4" fill="#D9A066" />
<rect x="48" y="96" width="4" height="4" fill="#D9A066" />
<rect x="52" y="96" width="4" height="4" fill="#D9A066" />
<rect x="56" y="96" width="4" height="4" fill="#D9A066" />
<rect x="60" y="96" width="4" height="4" fill="#D9A066" />
<rect x="64" y="96" width="4" height="4" fill="#D9A066" />
<rect x="68" y="96" width="4" height="4" fill="#EEC39A" />
<rect x="72" y="96" width="4" height="4" fill="#EEC39A" />
<rect x="76" y="96" width="4" height="4" fill="#EEC39A" />
<rect x="32" y="100" width="4" height="4" fill="#D9A066" />
<rect x="36" y="100" width="4" height="4" fill="#D9A066" />
<rect x="40" y="100" width="4" height="4" fill="#D9A066" />
<rect x="44" y="100" width="4" height="4" fill="#EEC39A" />
<rect x="48" y="100" width="4" height="4" fill="#EEC39A" />
<rect x="52" y="100" width="4" height="4" fill="#EEC39A" />
<rect x="56" y="100" width="4" height="4" fill="#EEC39A" />
<rect x="60" y="100" width="4" height="4" fill="#EEC39A" />
<rect x="64" y="100" width="4" height="4" fill="#EEC39A" />
<rect x="68" y="100" width="4" height="4" fill="#D9A066" />
<rect x="72" y="100" width="4" height="4" fill="#D9A066" />
<rect x="76" y="100" width="4" height="4" fill="#D9A066" />
<rect x="32" y="104" width="4" height="4" fill="#D9A066" />
<rect x="36" y="104" width="4" height="4" fill="#D9A066" />
<rect x="40" y="104" width="4" height="4" fill="#D9A066" />
<rect x="44" y="104" width="4" height="4" fill="#D9A066" />
<rect x="48" y="104" width="4" height="4" fill="#D9A066" />
<rect x="52" y="104" width="4" height="4" fill="#D9A066" />
<rect x="56" y="104" width="4" height="4" fill="#D9A066" />
<rect x="60" y="104" width="4" height="4" fill="#D9A066" />
<rect x="64" y="104" width="4" height="4" fill="#D9A066" />
<rect x="68" y="104" width="4" height="4" fill="#D9A066" />
<rect x="72" y="104" width="4" height="4" fill="#D9A066" />
<rect x="76" y="104" width="4" height="4" fill="#D9A066" />
<rect x="32" y="108" width="4" height="4" fill="#EEC39A" />
<rect x="36" y="108" width="4" height="4" fill="#EEC39A" />
<rect x="40" y="108" width="4" height="4" fill="#EEC39A" />
<rect x="44" y="108" width="4" height="4" fill="#D9A066" />
<rect x="48" y="108" width="4" height="4" fill="#D9A066" />
<rect x="52" y="108" width="4" height="4" fill="#D9A066" />
<rect x="56" y="108" width="4" height="4" fill="#D9A066" />
<rect x="60" y="108" width="4" height="4" fill="#D9A066" />
<rect x="64" y="108" width="4" height="4" fill="#D9A066" />
<rect x="68" y="108" width="4" height="4" fill="#EEC39A" />
<rect x="72" y="108" width="4" height="4" fill="#EEC39A" />
<rect x="76" y="108" width="4" height="4" fill="#EEC39A" />
<rect x="32" y="112" width="4" height="4" fill="#D9A066" />
<rect x="36" y="112" width="4" height="4" fill="#D9A066" />
<rect x="40" y="112" width="4" height="4" fill="#D9A066" />
<rect x="44" y="112" width="4" height="4" fill="#EEC39A" />
<rect x="48" y="112" width="4" height="4" fill="#EEC39A" />
<rect x="52" y="112" width="4" height="4" fill="#EEC39A" />
<rect x="56" y="112" width="4" height="4" fill="#EEC39A" />
<rect x="60" y="112" width="4" height="4" fill="#EEC39A" />
<rect x="64" y="112" width="4" height="4" fill="#EEC39A" />
<rect x="68" y="112" width="4" height="4" fill="#D9A066" />
<rect x="72" y="112" width="4" height="4" fill="#D9A066" />
<rect x="76" y="112" width="4" height="4" fill="#D9A066" />
<rect x="32" y="116" width="4" height="4" fill="#D9A066" />
<rect x="36" y="116" width="4" height="4" fill="#D9A066" />
<rect x="40" y="116" width="4" height="4" fill="#D9A066" />
<rect x="44" y="116" width="4" height="4" fill="#D9A066" />
<rect x="48" y="116" width="4" height="4" fill="#D9A066" />
<rect x="52" y="116" width="4" height="4" fill="#D9A066" />
<rect x="56" y="116" width="4" height="4" fill="#D9A066" />
<rect x="60" y="116" width="4" height="4" fill="#D9A066" />
<rect x="64" y="116" width="4" height="4" fill="#D9A066" />
<rect x="68" y="116" width="4" height="4" fill="#D9A066" />
<rect x="72" y="116" width="4" height="4" fill="#D9A066" />
<rect x="76" y="116" width="4" height="4" fill="#D9A066" />
<rect x="32" y="120" width="4" height="4" fill="#EEC39A" />
<rect x="36" y="120" width="4" height="4" fill="#EEC39A" />
<rect x="40" y="120" width="4" height="4" fill="#EEC39A" />
<rect x="44" y="120" width="4" height="4" fill="#D9A066" />
<rect x="48" y="120" width="4" height="4" fill="#D9A066" />
<rect x="52" y="120" width="4" height="4" fill="#D9A066" />
<rect x="56" y="120" width="4" height="4" fill="#D9A066" />
<rect x="60" y="120" width="4" height="4" fill="#D9A066" />
<rect x="64" y="120" width="4" height="4" fill="#D9A066" />
<rect x="68" y="120" width="4" height="4" fill="#EEC39A" />
<rect x="72" y="120" width="4" height="4" fill="#EEC39A" />
<rect x="76" y="120" width="4" height="4" fill="#EEC39A" />
<rect x="32" y="124" width="4" height="4" fill="#D9A066" />
<rect x="36" y="124" width="4" height="4" fill="#D9A066" />
<rect x="40" y="124" width="4" height="4" fill="#D9A066" />
<rect x="44" y="124" width="4" height="4" fill="#EEC39A" />
<rect x="48" y="124" width="4" height="4" fill="#EEC39A" />
<rect x="52" y="124" width="4" height="4" fill="#EEC39A" />
<rect x="56" y="124" width="4" height="4" fill="#EEC39A" />
<rect x="60" y="124" width="4" height="4" fill="#EEC39A" />
<rect x="64" y="124" width="4" height="4" fill="#EEC39A" />
<rect x="68" y="124" width="4" height="4" fill="#D9A066" />
<rect x="72" y="124" width="4" height="4" fill="#D9A066" />
<rect x="76" y="124" width="4" height="4" fill="#D9A066" />
<rect x="32" y="128" width="4" height="4" fill="#D9A066" />
<rect x="36" y="128" width="4" height="4" fill="#D9A066" />
<rect x="40" y="128" width="4" height="4" fill="#D9A066" />
<rect x="44" y="128" width="4" height="4" fill="#D9A066" />
<rect x="48" y="128" width="4" height="4" fill="#D9A066" />
<rect x="52" y="128" width="4" height="4" fill="#D9A066" />
<rect x="56" y="128" width="4" height="4" fill="#D9A066" />
<rect x="60" y="128" width="4" height="4" fill="#D9A066" />
<rect x="64" y="128" width="4" height="4" fill="#D9A066" />
<rect x="68" y="128" width="4" height="4" fill="#D9A066" />
<rect x="72" y="128" width="4" height="4" fill="#D9A066" />
<rect x="76" y="128" width="4" height="4" fill="#D9A066" />
<rect x="32" y="132" width="4" height="4" fill="#EEC39A" />
<rect x="36" y="132" width="4" height="4" fill="#EEC39A" />
<rect x="40" y="132" width="4" height="4" fill="#EEC39A" />
<rect x="44" y="132" width="4" height="4" fill="#D9A066" />
<rect x="48" y="132" width="4" height="4" fill="#D9A066" />
<rect x="52" y="132" width="4" height="4" fill="#D9A066" />
<rect x="56" y="132" width="4" height="4" fill="#D9A066" />
<rect x="60" y="132" width="4" height="4" fill="#D9A066" />
<rect x="64" y="132" width="4" height="4" fill="#D9A066" />
<rect x="68" y="132" width="4" height="4" fill="#EEC39A" />
<rect x="72" y="132" width="4" height="4" fill="#EEC39A" />
<rect x="76" y="132" width="4" height="4" fill="#EEC39A" />
<rect x="32" y="136" width="4" height="4" fill="#D9A066" />
<rect x="36" y="136" width="4" height="4" fill="#D9A066" />
<rect x="40" y="136" width="4" height="4" fill="#D9A066" />
<rect x="44" y="136" width="4" height="4" fill="#EEC39A" />
<rect x="48" y="136" width="4" height="4" fill="#EEC39A" />
<rect x="52" y="136" width="4" height="4" fill="#EEC39A" />
<rect x="56" y="136" width="4" height="4" fill="#EEC39A" />
<rect x="60" y="136" width="4" height="4" fill="#EEC39A" />
<rect x="64" y="136" width="4" height="4" fill="#EEC39A" />
<rect x="68" y="136" width="4" height="4" fill="#D9A066" />
<rect x="72" y="136" width="4" height="4" fill="#D9A066" />
<rect x="76" y="136" width="4" height="4" fill="#D9A066" />
<rect x="32" y="140" width="4" height="4" fill="#D9A066" />
<rect x="36" y="140" width="4" height="4" fill="#D9A066" />
<rect x="40" y="140" width="4" height="4" fill="#D9A066" />
<rect x="44" y="140" width="4" height="4" fill="#D9A066" />
<rect x="48" y="140" width="4" height="4" fill="#D9A066" />
<rect x="52" y="140" width="4" height="4" fill="#D9A066" />
<rect x="56" y="140" width="4" height="4" fill="#D9A066" />
<rect x="60" y="140" width="4" height="4" fill="#D9A066" />
<rect x="64" y="140" width="4" height="4" fill="#D9A066" />
<rect x="68" y="140" width="4" height="4" fill="#D9A066" />
<rect x="72" y="140" width="4" height="4" fill="#D9A066" />
<rect x="76" y="140" width="4" height="4" fill="#D9A066" />
<rect x="32" y="144" width="4" height="4" fill="#EEC39A" />
<rect x="36" y="144" width="4" height="4" fill="#EEC39A" />
<rect x="40" y="144" width="4" height="4" fill="#EEC39A" />
<rect x="44" y="144" width="4" height="4" fill="#D9A066" />
<rect x="48" y="144" width="4" height="4" fill="#D9A066" />
<rect x="52" y="144" width="4" height="4" fill="#D9A066" />
<rect x="56" y="144" width="4" height="4" fill="#D9A066" />
<rect x="60" y="144" width="4" height="4" fill="#D9A066" />
<rect x="64" y="144" width="4" height="4" fill="#D9A066" />
<rect x="68" y="144" width="4" height="4" fill="#EEC39A" />
<rect x="72" y="144" width="4" height="4" fill="#EEC39A" />
<rect x="76" y="144" width="4" height="4" fill="#EEC39A" />
<rect x="32" y="148" width="4" height="4" fill="#D9A066" />
<rect x="36" y="148" width="4" height="4" fill="#D9A066" />
<rect x="40" y="148" width="4" height="4" fill="#D9A066" />
<rect x="44" y="148" width="4" height="4" fill="#EEC39A" />
<rect x="48" y="148" width="4" height="4" fill="#EEC39A" />
<rect x="52" y="148" width="4" height="4" fill="#EEC39A" />
<rect x="56" y="148" width="4" height="4" fill="#EEC39A" />
<rect x="60" y="148" width="4" height="4" fill="#EEC39A" />
<rect x="64" y="148" width="4" height="4" fill="#EEC39A" />
<rect x="68" y="148" width="4" height="4" fill="#D9A066" />
<rect x="72" y="148" width="4" height="4" fill="#D9A066" />
<rect x="76" y="148" width="4" height="4" fill="#D9A066" />
<rect x="32" y="152" width="4" height="4" fill="#D9A066" />
<rect x="36" y="152" width="4" height="4" fill="#D9A066" />
<rect x="40" y="152" width="4" height="4" fill="#D9A066" />
<rect x="44" y="152" width="4" height="4" fill="#D9A066" />
<rect x="48" y="152" width="4" height="4" fill="#D9A066" />
<rect x="52" y="152" width="4" height="4" fill="#D9A066" />
<rect x="56" y="152" width="4" height="4" fill="#D9A066" />
<rect x="60" y="152" width="4" height="4" fill="#D9A066" />
<rect x="64" y="152" width="4" height="4" fill="#D9A066" />
<rect x="68" y="152" width="4" height="4" fill="#D9A066" />
<rect x="72" y="152" width="4" height="4" fill="#D9A066" />
<rect x="76" y="152" width="4" height="4" fill="#D9A066" />
<rect x="32" y="156" width="4" height="4" fill="#EEC39A" />
<rect x="36" y="156" width="4" height="4" fill="#EEC39A" />
<rect x="40" y="156" width="4" height="4" fill="#EEC39A" />
<rect x="44" y="156" width="4" height="4" fill="#D9A066" />
<rect x="48" y="156" width="4" height="4" fill="#D9A066" />
<rect x="52" y="156" width="4" height="4" fill="#D9A066" />
<rect x="56" y="156" width="4" height="4" fill="#D9A066" />
<rect x="60" y="156" width="4" height="4" fill="#D9A066" />
<rect x="64" y="156" width="4" height="4" fill="#D9A066" />
<rect x="68" y="156" width="4" height="4" fill="#EEC39A" />
<rect x="72" y="156" width="4" height="4" fill="#EEC39A" />
<rect x="76" y="156" width="4" height="4" fill="#EEC39A" />
<rect x="32" y="160" width="4" height="4" fill="#D9A066" />
<rect x="36" y="160" width="4" height="4" fill="#D9A066" />
<rect x="40" y="160" width="4" height="4" fill="#D9A066" />
<rect x="44" y="160" width="4" height="4" fill="#EEC39A" />
<rect x="48" y="160" width="4" height="4" fill="#EEC39A" />
<rect x="52" y="160" width="4" height="4" fill="#EEC39A" />
<rect x="56" y="160" width="4" height="4" fill="#EEC39A" />
<rect x="60" y="160" width="4" height="4" fill="#EEC39A" />
<rect x="64" y="160" width="4" height="4" fill="#EEC39A" />
<rect x="68" y="160" width="4" height="4" fill="#D9A066" />
<rect x="72" y="160" width="4" height="4" fill="#D9A066" />
<rect x="76" y="160" width="4" height="4" fill="#D9A066" />
<rect x="32" y="164" width="4" height="4" fill="#D9A066" />
<rect x="36" y="164" width="4" height="4" fill="#D9A066" />
<rect x="40" y="164" width="4" height="4" fill="#D9A066" />
<rect x="44" y="164" width="4" height="4" fill="#D9A066" />
<rect x="48" y="164" width="4" height="4" fill="#D9A066" />
<rect x="52" y="164" width="4" height="4" fill="#D9A066" />
<rect x="56" y="164" width="4" height="4" fill="#D9A066" />
<rect x="60" y="164" width="4" height="4" fill="#D9A066" />
<rect x="64" y="164" width="4" height="4" fill="#D9A066" />
<rect x="68" y="164" width="4" height="4" fill="#D9A066" />
<rect x="72" y="164" width="4" height="4" fill="#D9A066" />
<rect x="76" y="164" width="4" height="4" fill="#D9A066" />
<rect x="32" y="168" width="4" height="4" fill="#EEC39A" />
<rect x="36" y="168" width="4" height="4" fill="#EEC39A" />
<rect x="40" y="168" width="4" height="4" fill="#EEC39A" />
<rect x="44" y="168" width="4" height="4" fill="#D9A066" />
<rect x="48" y="168" width="4" height="4" fill="#D9A066" />
<rect x="52" y="168" width="4" height="4" fill="#D9A066" />
<rect x="56" y="168" width="4" height="4" fill="#D9A066" />
<rect x="60" y="168" width="4" height="4" fill="#D9A066" />
<rect x="64" y="168" width="4" height="4" fill="#D9A066" />
<rect x="68" y="168" width="4" height="4" fill="#EEC39A" />
<rect x="72" y="168" width="4" height="4" fill="#EEC39A" />
<rect x="76" y="168" width="4" height="4" fill="#EEC39A" />
<rect x="32" y="172" width="4" height="4" fill="#D9A066" />
<rect x="36" y="172" width="4" height="4" fill="#D9A066" />
<rect x="40" y="172" width="4" height="4" fill="#D9A066" />
<rect x="44" y="172" width="4" height="4" fill="#EEC39A" />
<rect x="48" y="172" width="4" height="4" fill="#EEC39A" />
<rect x="52" y="172" width="4" height="4" fill="#EEC39A" />
<rect x="56" y="172" width="4" height="4" fill="#EEC39A" />
<rect x="60" y="172" width="4" height="4" fill="#EEC39A" />
<rect x="64" y="172" width="4" height="4" fill="#EEC39A" />
<rect x="68" y="172" width="4" height="4" fill="#D9A066" />
<rect x="72" y="172" width="4" height="4" fill="#D9A066" />
<rect x="76" y="172" width="4" height="4" fill="#D9A066" />
<rect x="16" y="176" width="4" height="4" fill="#45283C" />
<rect x="20" y="176" width="4" height="4" fill="#45283C" />
<rect x="24" y="176" width="4" height="4" fill="#663D59" />
<rect x="28" y="176" width="4" height="4" fill="#663D59" />
<rect x="32" y="176" width="4" height="4" fill="#D9A066" />
<rect x="36" y="176" width="4" height="4" fill="#D9A066" />
<rect x="40" y="176" width="4" height="4" fill="#D9A066" />
<rect x="44" y="176" width="4" height="4" fill="#D9A066" />
<rect x="48" y="176" width="4" height="4" fill="#D9A066" />
<rect x="52" y="176" width="4" height="4" fill="#D9A066" />
<rect x="56" y="176" width="4" height="4" fill="#D9A066" />
<rect x="60" y="176" width="4" height="4" fill="#D9A066" />
<rect x="64" y="176" width="4" height="4" fill="#D9A066" />
<rect x="68" y="176" width="4" height="4" fill="#D9A066" />
<rect x="72" y="176" width="4" height="4" fill="#D9A066" />
<rect x="76" y="176" width="4" height="4" fill="#D9A066" />
<rect x="80" y="176" width="4" height="4" fill="#663D59" />
<rect x="84" y="176" width="4" height="4" fill="#663D59" />
<rect x="88" y="176" width="4" height="4" fill="#45283C" />
<rect x="92" y="176" width="4" height="4" fill="#45283C" />
<rect x="8" y="180" width="4" height="4" fill="#45283C" />
<rect x="12" y="180" width="4" height="4" fill="#45283C" />
<rect x="16" y="180" width="4" height="4" fill="#663D59" />
<rect x="20" y="180" width="4" height="4" fill="#663D59" />
<rect x="24" y="180" width="4" height="4" fill="#663D59" />
<rect x="28" y="180" width="4" height="4" fill="#663D59" />
<rect x="32" y="180" width="4" height="4" fill="#EEC39A" />
<rect x="36" y="180" width="4" height="4" fill="#EEC39A" />
<rect x="40" y="180" width="4" height="4" fill="#EEC39A" />
<rect x="44" y="180" width="4" height="4" fill="#D9A066" />
<rect x="48" y="180" width="4" height="4" fill="#D9A066" />
<rect x="52" y="180" width="4" height="4" fill="#D9A066" />
<rect x="56" y="180" width="4" height="4" fill="#D9A066" />
<rect x="60" y="180" width="4" height="4" fill="#D9A066" />
<rect x="64" y="180" width="4" height="4" fill="#D9A066" />
<rect x="68" y="180" width="4" height="4" fill="#EEC39A" />
<rect x="72" y="180" width="4" height="4" fill="#EEC39A" />
<rect x="76" y="180" width="4" height="4" fill="#EEC39A" />
<rect x="80" y="180" width="4" height="4" fill="#663D59" />
<rect x="84" y="180" width="4" height="4" fill="#663D59" />
<rect x="88" y="180" width="4" height="4" fill="#663D59" />
<rect x="92" y="180" width="4" height="4" fill="#663D59" />
<rect x="96" y="180" width="4" height="4" fill="#45283C" />
<rect x="100" y="180" width="4" height="4" fill="#45283C" />
<rect x="4" y="184" width="4" height="4" fill="#45283C" />
<rect x="8" y="184" width="4" height="4" fill="#45283C" />
<rect x="12" y="184" width="4" height="4" fill="#663D59" />
<rect x="16" y="184" width="4" height="4" fill="#663D59" />
<rect x="20" y="184" width="4" height="4" fill="#663D59" />
<rect x="24" y="184" width="4" height="4" fill="#663D59" />
<rect x="28" y="184" width="4" height="4" fill="#663D59" />
<rect x="32" y="184" width="4" height="4" fill="#663D59" />
<rect x="36" y="184" width="4" height="4" fill="#D9A066" />
<rect x="40" y="184" width="4" height="4" fill="#D9A066" />
<rect x="44" y="184" width="4" height="4" fill="#EEC39A" />
<rect x="48" y="184" width="4" height="4" fill="#EEC39A" />
<rect x="52" y="184" width="4" height="4" fill="#EEC39A" />
<rect x="56" y="184" width="4" height="4" fill="#EEC39A" />
<rect x="60" y="184" width="4" height="4" fill="#EEC39A" />
<rect x="64" y="184" width="4" height="4" fill="#EEC39A" />
<rect x="68" y="184" width="4" height="4" fill="#D9A066" />
<rect x="72" y="184" width="4" height="4" fill="#D9A066" />
<rect x="76" y="184" width="4" height="4" fill="#663D59" />
<rect x="80" y="184" width="4" height="4" fill="#663D59" />
<rect x="84" y="184" width="4" height="4" fill="#663D59" />
<rect x="88" y="184" width="4" height="4" fill="#663D59" />
<rect x="92" y="184" width="4" height="4" fill="#663D59" />
<rect x="96" y="184" width="4" height="4" fill="#663D59" />
<rect x="100" y="184" width="4" height="4" fill="#45283C" />
<rect x="104" y="184" width="4" height="4" fill="#45283C" />
<rect x="4" y="188" width="4" height="4" fill="#45283C" />
<rect x="8" y="188" width="4" height="4" fill="#45283C" />
<rect x="12" y="188" width="4" height="4" fill="#45283C" />
<rect x="16" y="188" width="4" height="4" fill="#663D59" />
<rect x="20" y="188" width="4" height="4" fill="#663D59" />
<rect x="24" y="188" width="4" height="4" fill="#663D59" />
<rect x="28" y="188" width="4" height="4" fill="#663D59" />
<rect x="32" y="188" width="4" height="4" fill="#663D59" />
<rect x="36" y="188" width="4" height="4" fill="#663D59" />
<rect x="40" y="188" width="4" height="4" fill="#663D59" />
<rect x="44" y="188" width="4" height="4" fill="#D9A066" />
<rect x="48" y="188" width="4" height="4" fill="#D9A066" />
<rect x="52" y="188" width="4" height="4" fill="#D9A066" />
<rect x="56" y="188" width="4" height="4" fill="#D9A066" />
<rect x="60" y="188" width="4" height="4" fill="#D9A066" />
<rect x="64" y="188" width="4" height="4" fill="#D9A066" />
<rect x="68" y="188" width="4" height="4" fill="#663D59" />
<rect x="72" y="188" width="4" height="4" fill="#663D59" />
<rect x="76" y="188" width="4" height="4" fill="#663D59" />
<rect x="80" y="188" width="4" height="4" fill="#663D59" />
<rect x="84" y="188" width="4" height="4" fill="#663D59" />
<rect x="88" y="188" width="4" height="4" fill="#663D59" />
<rect x="92" y="188" width="4" height="4" fill="#663D59" />
<rect x="96" y="188" width="4" height="4" fill="#45283C" />
<rect x="100" y="188" width="4" height="4" fill="#45283C" />
<rect x="104" y="188" width="4" height="4" fill="#45283C" />
<rect x="8" y="192" width="4" height="4" fill="#45283C" />
<rect x="12" y="192" width="4" height="4" fill="#45283C" />
<rect x="16" y="192" width="4" height="4" fill="#45283C" />
<rect x="20" y="192" width="4" height="4" fill="#45283C" />
<rect x="24" y="192" width="4" height="4" fill="#663D59" />
<rect x="28" y="192" width="4" height="4" fill="#663D59" />
<rect x="32" y="192" width="4" height="4" fill="#663D59" />
<rect x="36" y="192" width="4" height="4" fill="#663D59" />
<rect x="40" y="192" width="4" height="4" fill="#663D59" />
<rect x="44" y="192" width="4" height="4" fill="#663D59" />
<rect x="48" y="192" width="4" height="4" fill="#663D59" />
<rect x="52" y="192" width="4" height="4" fill="#663D59" />
<rect x="56" y="192" width="4" height="4" fill="#663D59" />
<rect x="60" y="192" width="4" height="4" fill="#663D59" />
<rect x="64" y="192" width="4" height="4" fill="#663D59" />
<rect x="68" y="192" width="4" height="4" fill="#663D59" />
<rect x="72" y="192" width="4" height="4" fill="#663D59" />
<rect x="76" y="192" width="4" height="4" fill="#663D59" />
<rect x="80" y="192" width="4" height="4" fill="#663D59" />
<rect x="84" y="192" width="4" height="4" fill="#663D59" />
<rect x="88" y="192" width="4" height="4" fill="#45283C" />
<rect x="92" y="192" width="4" height="4" fill="#45283C" />
<rect x="96" y="192" width="4" height="4" fill="#45283C" />
<rect x="100" y="192" width="4" height="4" fill="#45283C" />
<rect x="16" y="196" width="4" height="4" fill="#45283C" />
<rect x="20" y="196" width="4" height="4" fill="#45283C" />
<rect x="24" y="196" width="4" height="4" fill="#45283C" />
<rect x="28" y="196" width="4" height="4" fill="#45283C" />
<rect x="32" y="196" width="4" height="4" fill="#45283C" />
<rect x="36" y="196" width="4" height="4" fill="#663D59" />
<rect x="40" y="196" width="4" height="4" fill="#663D59" />
<rect x="44" y="196" width="4" height="4" fill="#663D59" />
<rect x="48" y="196" width="4" height="4" fill="#663D59" />
<rect x="52" y="196" width="4" height="4" fill="#663D59" />
<rect x="56" y="196" width="4" height="4" fill="#663D59" />
<rect x="60" y="196" width="4" height="4" fill="#663D59" />
<rect x="64" y="196" width="4" height="4" fill="#663D59" />
<rect x="68" y="196" width="4" height="4" fill="#663D59" />
<rect x="72" y="196" width="4" height="4" fill="#663D59" />
<rect x="76" y="196" width="4" height="4" fill="#45283C" />
<rect x="80" y="196" width="4" height="4" fill="#45283C" />
<rect x="84" y="196" width="4" height="4" fill="#45283C" />
<rect x="88" y="196" width="4" height="4" fill="#45283C" />
<rect x="92" y="196" width="4" height="4" fill="#45283C" />
<rect x="24" y="200" width="4" height="4" fill="#45283C" />
<rect x="28" y="200" width="4" height="4" fill="#45283C" />
<rect x="32" y="200" width="4" height="4" fill="#45283C" />
<rect x="36" y="200" width="4" height="4" fill="#45283C" />
<rect x="40" y="200" width="4" height="4" fill="#45283C" />
<rect x="44" y="200" width="4" height="4" fill="#45283C" />
<rect x="48" y="200" width="4" height="4" fill="#663D59" />
<rect x="52" y="200" width="4" height="4" fill="#663D59" />
<rect x="56" y="200" width="4" height="4" fill="#663D59" />
<rect x="60" y="200" width="4" height="4" fill="#663D59" />
<rect x="64" y="200" width="4" height="4" fill="#45283C" />
<rect x="68" y="200" width="4" height="4" fill="#45283C" />
<rect x="72" y="200" width="4" height="4" fill="#45283C" />
<rect x="76" y="200" width="4" height="4" fill="#45283C" />
<rect x="80" y="200" width="4" height="4" fill="#45283C" />
<rect x="84" y="200" width="4" height="4" fill="#45283C" />
<rect x="40" y="204" width="4" height="4" fill="#45283C" />
<rect x="44" y="204" width="4" height="4" fill="#45283C" />
<rect x="48" y="204" width="4" height="4" fill="#45283C" />
<rect x="52" y="204" width="4" height="4" fill="#45283C" />
<rect x="56" y="204" width="4" height="4" fill="#45283C" />
<rect x="60" y="204" width="4" height="4" fill="#45283C" />
<rect x="64" y="204" width="4" height="4" fill="#45283C" />
<rect x="68" y="204" width="4" height="4" fill="#45283C" />
</svg>