<?xml version="1.0" encoding="UTF-8" ?>
<svg version="1.1" width="128" height="128" xmlns="http://www.w3.org/2000/svg">
<rect x="20" y="24" width="4" height="4" fill="#000000" />
<rect x="24" y="24" width="4" height="4" fill="#000000" />
<rect x="60" y="24" width="4" height="4" fill="#000000" />
<rect x="92" y="24" width="4" height="4" fill="#000000" />
<rect x="16" y="28" width="4" height="4" fill="#000000" />
<rect x="20" y="28" width="4" height="4" fill="#000000" />
<rect x="24" y="28" width="4" height="4" fill="#000000" />
<rect x="60" y="28" width="4" height="4" fill="#000000" />
<rect x="64" y="28" width="4" height="4" fill="#000000" />
<rect x="88" y="28" width="4" height="4" fill="#000000" />
<rect x="92" y="28" width="4" height="4" fill="#000000" />
<rect x="16" y="32" width="4" height="4" fill="#000000" />
<rect x="20" y="32" width="4" height="4" fill="#000000" />
<rect x="60" y="32" width="4" height="4" fill="#000000" />
<rect x="64" y="32" width="4" height="4" fill="#000000" />
<rect x="68" y="32" width="4" height="4" fill="#000000" />
<rect x="84" y="32" width="4" height="4" fill="#000000" />
<rect x="88" y="32" width="4" height="4" fill="#000000" />
<rect x="92" y="32" width="4" height="4" fill="#000000" />
<rect x="16" y="36" width="4" height="4" fill="#000000" />
<rect x="60" y="36" width="4" height="4" fill="#000000" />
<rect x="64" y="36" width="4" height="4" fill="#000000" />
<rect x="68" y="36" width="4" height="4" fill="#FBF236" />
<rect x="72" y="36" width="4" height="4" fill="#000000" />
<rect x="76" y="36" width="4" height="4" fill="#000000" />
<rect x="80" y="36" width="4" height="4" fill="#000000" />
<rect x="84" y="36" width="4" height="4" fill="#FBF236" />
<rect x="88" y="36" width="4" height="4" fill="#000000" />
<rect x="92" y="36" width="4" height="4" fill="#000000" />
<rect x="12" y="40" width="4" height="4" fill="#000000" />
<rect x="16" y="40" width="4" height="4" fill="#000000" />
<rect x="60" y="40" width="4" height="4" fill="#000000" />
<rect x="64" y="40" width="4" height="4" fill="#FBF236" />
<rect x="68" y="40" width="4" height="4" fill="#000000" />
<rect x="72" y="40" width="4" height="4" fill="#FBF236" />
<rect x="76" y="40" width="4" height="4" fill="#000000" />
<rect x="80" y="40" width="4" height="4" fill="#FBF236" />
<rect x="84" y="40" width="4" height="4" fill="#000000" />
<rect x="88" y="40" width="4" height="4" fill="#FBF236" />
<rect x="92" y="40" width="4" height="4" fill="#000000" />
<rect x="12" y="44" width="4" height="4" fill="#000000" />
<rect x="16" y="44" width="4" height="4" fill="#000000" />
<rect x="60" y="44" width="4" height="4" fill="#000000" />
<rect x="64" y="44" width="4" height="4" fill="#FBF236" />
<rect x="68" y="44" width="4" height="4" fill="#000000" />
<rect x="72" y="44" width="4" height="4" fill="#FBF236" />
<rect x="76" y="44" width="4" height="4" fill="#000000" />
<rect x="80" y="44" width="4" height="4" fill="#FBF236" />
<rect x="84" y="44" width="4" height="4" fill="#000000" />
<rect x="88" y="44" width="4" height="4" fill="#FBF236" />
<rect x="92" y="44" width="4" height="4" fill="#000000" />
<rect x="12" y="48" width="4" height="4" fill="#000000" />
<rect x="16" y="48" width="4" height="4" fill="#000000" />
<rect x="20" y="48" width="4" height="4" fill="#000000" />
<rect x="64" y="48" width="4" height="4" fill="#000000" />
<rect x="68" y="48" width="4" height="4" fill="#000000" />
<rect x="72" y="48" width="4" height="4" fill="#000000" />
<rect x="76" y="48" width="4" height="4" fill="#696A6A" />
<rect x="80" y="48" width="4" height="4" fill="#000000" />
<rect x="84" y="48" width="4" height="4" fill="#000000" />
<rect x="88" y="48" width="4" height="4" fill="#000000" />
<rect x="12" y="52" width="4" height="4" fill="#000000" />
<rect x="16" y="52" width="4" height="4" fill="#000000" />
<rect x="20" y="52" width="4" height="4" fill="#000000" />
<rect x="24" y="52" width="4" height="4" fill="#000000" />
<rect x="28" y="52" width="4" height="4" fill="#000000" />
<rect x="32" y="52" width="4" height="4" fill="#000000" />
<rect x="36" y="52" width="4" height="4" fill="#000000" />
<rect x="40" y="52" width="4" height="4" fill="#000000" />
<rect x="44" y="52" width="4" height="4" fill="#000000" />
<rect x="48" y="52" width="4" height="4" fill="#000000" />
<rect x="52" y="52" width="4" height="4" fill="#000000" />
<rect x="68" y="52" width="4" height="4" fill="#000000" />
<rect x="72" y="52" width="4" height="4" fill="#000000" />
<rect x="76" y="52" width="4" height="4" fill="#000000" />
<rect x="80" y="52" width="4" height="4" fill="#000000" />
<rect x="84" y="52" width="4" height="4" fill="#000000" />
<rect x="16" y="56" width="4" height="4" fill="#000000" />
<rect x="20" y="56" width="4" height="4" fill="#000000" />
<rect x="24" y="56" width="4" height="4" fill="#000000" />
<rect x="28" y="56" width="4" height="4" fill="#000000" />
<rect x="32" y="56" width="4" height="4" fill="#000000" />
<rect x="36" y="56" width="4" height="4" fill="#000000" />
<rect x="40" y="56" width="4" height="4" fill="#000000" />
<rect x="44" y="56" width="4" height="4" fill="#000000" />
<rect x="48" y="56" width="4" height="4" fill="#000000" />
<rect x="52" y="56" width="4" height="4" fill="#000000" />
<rect x="56" y="56" width="4" height="4" fill="#000000" />
<rect x="60" y="56" width="4" height="4" fill="#000000" />
<rect x="64" y="56" width="4" height="4" fill="#000000" />
<rect x="68" y="56" width="4" height="4" fill="#000000" />
<rect x="72" y="56" width="4" height="4" fill="#000000" />
<rect x="76" y="56" width="4" height="4" fill="#000000" />
<rect x="80" y="56" width="4" height="4" fill="#000000" />
<rect x="84" y="56" width="4" height="4" fill="#000000" />
<rect x="20" y="60" width="4" height="4" fill="#000000" />
<rect x="24" y="60" width="4" height="4" fill="#000000" />
<rect x="28" y="60" width="4" height="4" fill="#000000" />
<rect x="32" y="60" width="4" height="4" fill="#000000" />
<rect x="36" y="60" width="4" height="4" fill="#000000" />
<rect x="40" y="60" width="4" height="4" fill="#000000" />
<rect x="44" y="60" width="4" height="4" fill="#000000" />
<rect x="48" y="60" width="4" height="4" fill="#000000" />
<rect x="52" y="60" width="4" height="4" fill="#000000" />
<rect x="56" y="60" width="4" height="4" fill="#000000" />
<rect x="60" y="60" width="4" height="4" fill="#000000" />
<rect x="64" y="60" width="4" height="4" fill="#000000" />
<rect x="68" y="60" width="4" height="4" fill="#000000" />
<rect x="72" y="60" width="4" height="4" fill="#000000" />
<rect x="76" y="60" width="4" height="4" fill="#000000" />
<rect x="80" y="60" width="4" height="4" fill="#000000" />
<rect x="84" y="60" width="4" height="4" fill="#000000" />
<rect x="20" y="64" width="4" height="4" fill="#000000" />
<rect x="24" y="64" width="4" height="4" fill="#000000" />
<rect x="28" y="64" width="4" height="4" fill="#000000" />
<rect x="32" y="64" width="4" height="4" fill="#000000" />
<rect x="36" y="64" width="4" height="4" fill="#000000" />
<rect x="40" y="64" width="4" height="4" fill="#000000" />
<rect x="44" y="64" width="4" height="4" fill="#000000" />
<rect x="48" y="64" width="4" height="4" fill="#000000" />
<rect x="52" y="64" width="4" height="4" fill="#000000" />
<rect x="56" y="64" width="4" height="4" fill="#000000" />
<rect x="60" y="64" width="4" height="4" fill="#000000" />
<rect x="64" y="64" width="4" height="4" fill="#000000" />
<rect x="68" y="64" width="4" height="4" fill="#000000" />
<rect x="72" y="64" width="4" height="4" fill="#000000" />
<rect x="76" y="64" width="4" height="4" fill="#000000" />
<rect x="80" y="64" width="4" height="4" fill="#000000" />
<rect x="84" y="64" width="4" height="4" fill="#000000" />
<rect x="20" y="68" width="4" height="4" fill="#000000" />
<rect x="24" y="68" width="4" height="4" fill="#000000" />
<rect x="28" y="68" width="4" height="4" fill="#000000" />
<rect x="32" y="68" width="4" height="4" fill="#000000" />
<rect x="36" y="68" width="4" height="4" fill="#000000" />
<rect x="40" y="68" width="4" height="4" fill="#000000" />
<rect x="44" y="68" width="4" height="4" fill="#000000" />
<rect x="48" y="68" width="4" height="4" fill="#000000" />
<rect x="52" y="68" width="4" height="4" fill="#000000" />
<rect x="56" y="68" width="4" height="4" fill="#000000" />
<rect x="60" y="68" width="4" height="4" fill="#000000" />
<rect x="64" y="68" width="4" height="4" fill="#000000" />
<rect x="68" y="68" width="4" height="4" fill="#000000" />
<rect x="72" y="68" width="4" height="4" fill="#000000" />
<rect x="76" y="68" width="4" height="4" fill="#000000" />
<rect x="80" y="68" width="4" height="4" fill="#000000" />
<rect x="84" y="68" width="4" height="4" fill="#000000" />
<rect x="88" y="68" width="4" height="4" fill="#000000" />
<rect x="92" y="68" width="4" height="4" fill="#000000" />
<rect x="24" y="72" width="4" height="4" fill="#000000" />
<rect x="28" y="72" width="4" height="4" fill="#000000" />
<rect x="32" y="72" width="4" height="4" fill="#000000" />
<rect x="36" y="72" width="4" height="4" fill="#000000" />
<rect x="40" y="72" width="4" height="4" fill="#000000" />
<rect x="44" y="72" width="4" height="4" fill="#000000" />
<rect x="48" y="72" width="4" height="4" fill="#000000" />
<rect x="52" y="72" width="4" height="4" fill="#000000" />
<rect x="56" y="72" width="4" height="4" fill="#000000" />
<rect x="60" y="72" width="4" height="4" fill="#000000" />
<rect x="64" y="72" width="4" height="4" fill="#000000" />
<rect x="68" y="72" width="4" height="4" fill="#000000" />
<rect x="72" y="72" width="4" height="4" fill="#000000" />
<rect x="76" y="72" width="4" height="4" fill="#000000" />
<rect x="80" y="72" width="4" height="4" fill="#000000" />
<rect x="84" y="72" width="4" height="4" fill="#000000" />
<rect x="88" y="72" width="4" height="4" fill="#000000" />
<rect x="92" y="72" width="4" height="4" fill="#000000" />
<rect x="32" y="76" width="4" height="4" fill="#000000" />
<rect x="36" y="76" width="4" height="4" fill="#000000" />
<rect x="40" y="76" width="4" height="4" fill="#000000" />
<rect x="44" y="76" width="4" height="4" fill="#000000" />
<rect x="48" y="76" width="4" height="4" fill="#000000" />
<rect x="52" y="76" width="4" height="4" fill="#000000" />
<rect x="56" y="76" width="4" height="4" fill="#000000" />
<rect x="60" y="76" width="4" height="4" fill="#000000" />
<rect x="64" y="76" width="4" height="4" fill="#000000" />
<rect x="68" y="76" width="4" height="4" fill="#000000" />
<rect x="72" y="76" width="4" height="4" fill="#000000" />
<rect x="76" y="76" width="4" height="4" fill="#000000" />
<rect x="80" y="76" width="4" height="4" fill="#000000" />
<rect x="84" y="76" width="4" height="4" fill="#000000" />
<rect x="88" y="76" width="4" height="4" fill="#000000" />
<rect x="40" y="80" width="4" height="4" fill="#000000" />
<rect x="44" y="80" width="4" height="4" fill="#000000" />
<rect x="48" y="80" width="4" height="4" fill="#000000" />
<rect x="52" y="80" width="4" height="4" fill="#000000" />
</svg>