<svg xmlns="http://www.w3.org/2000/svg" xmlns:xlink="http://www.w3.org/1999/xlink" viewBox="0 0 26 18"><defs><clipPath id="clip-path"><rect width="26" height="18" style="fill:none"/></clipPath></defs><title>summer</title><g id="Layer_2" data-name="Layer 2"><g id="Layer_1-2" data-name="Layer 1"><g id="Artwork_11" data-name="Artwork 11"><g style="clip-path:url(#clip-path)"><rect x="12" width="2" height="2" style="fill:#6abe30"/><rect x="14" width="2" height="2" style="fill:#6abe30"/><rect x="22" width="2" height="2" style="fill:#6abe30"/><rect x="24" width="2" height="2" style="fill:#6abe30"/><rect x="12" y="2" width="2" height="2" style="fill:#6abe30"/><rect x="14" y="2" width="2" height="2" style="fill:#6abe30"/><rect x="16" y="2" width="2" height="2" style="fill:#6abe30"/><rect x="20" y="2" width="2" height="2" style="fill:#6abe30"/><rect x="22" y="2" width="2" height="2" style="fill:#6abe30"/><rect x="24" y="2" width="2" height="2" style="fill:#6abe30"/><rect y="4" width="2" height="2" style="fill:#6abe30"/><rect x="8" y="4" width="2" height="2" style="fill:#5fcde4"/><rect x="14" y="4" width="2" height="2" style="fill:#6abe30"/><rect x="16" y="4" width="2" height="2" style="fill:#6abe30"/><rect x="18" y="4" width="2" height="2" style="fill:#ac3232"/><rect x="20" y="4" width="2" height="2" style="fill:#6abe30"/><rect x="22" y="4" width="2" height="2" style="fill:#6abe30"/><rect y="6" width="2" height="2" style="fill:#6abe30"/><rect x="2" y="6" width="2" height="2" style="fill:#6abe30"/><rect x="18" y="6" width="2" height="2" style="fill:#6abe30"/><rect y="8" width="2" height="2" style="fill:#6abe30"/><rect x="2" y="8" width="2" height="2" style="fill:#6abe30"/><rect x="4" y="8" width="2" height="2" style="fill:#6abe30"/><rect x="8" y="8" width="2" height="2" style="fill:#6abe30"/><rect x="10" y="8" width="2" height="2" style="fill:#6abe30"/><rect x="12" y="8" width="2" height="2" style="fill:#6abe30"/><rect x="18" y="8" width="2" height="2" style="fill:#6abe30"/><rect x="24" y="8" width="2" height="2" style="fill:#5fcde4"/><rect x="4" y="10" width="2" height="2" style="fill:#6abe30"/><rect x="6" y="10" width="2" height="2" style="fill:#6abe30"/><rect x="8" y="10" width="2" height="2" style="fill:#6abe30"/><rect x="10" y="10" width="2" height="2" style="fill:#6abe30"/><rect x="2" y="12" width="2" height="2" style="fill:#6abe30"/><rect x="4" y="12" width="2" height="2" style="fill:#ac3232"/><rect x="6" y="12" width="2" height="2" style="fill:#6abe30"/><rect x="8" y="12" width="2" height="2" style="fill:#6abe30"/><rect x="10" y="12" width="2" height="2" style="fill:#6abe30"/><rect x="16" y="12" width="2" height="2" style="fill:#5fcde4"/><rect y="14" width="2" height="2" style="fill:#6abe30"/><rect x="2" y="14" width="2" height="2" style="fill:#6abe30"/><rect x="4" y="14" width="2" height="2" style="fill:#6abe30"/><rect y="16" width="2" height="2" style="fill:#6abe30"/><rect x="2" y="16" width="2" height="2" style="fill:#6abe30"/></g></g></g></g></svg>