<svg xmlns="http://www.w3.org/2000/svg" xmlns:xlink="http://www.w3.org/1999/xlink" viewBox="0 0 30 16"><defs><clipPath id="clip-path"><rect width="30" height="16" style="fill:none"/></clipPath></defs><title>winter_1</title><g id="Layer_2" data-name="Layer 2"><g id="Layer_1-2" data-name="Layer 1"><g id="Artwork_7" data-name="Artwork 7"><g style="clip-path:url(#clip-path)"><rect x="16" width="2" height="2" style="fill:#cbdbfc"/><rect x="18" width="2" height="2" style="fill:#cbdbfc"/><rect x="6" y="2" width="2" height="2" style="fill:#6abe30"/><rect x="8" y="2" width="2" height="2" style="fill:#6abe30"/><rect x="10" y="2" width="2" height="2" style="fill:#6abe30"/><rect x="20" y="2" width="2" height="2" style="fill:#cbdbfc"/><rect x="2" y="4" width="2" height="2" style="fill:#6abe30"/><rect x="4" y="4" width="2" height="2" style="fill:#6abe30"/><rect x="6" y="4" width="2" height="2" style="fill:#6abe30"/><rect x="8" y="4" width="2" height="2" style="fill:#6abe30"/><rect y="6" width="2" height="2" style="fill:#6abe30"/><rect x="2" y="6" width="2" height="2" style="fill:#6abe30"/><rect x="4" y="6" width="2" height="2" style="fill:#6abe30"/><rect x="6" y="6" width="2" height="2" style="fill:#6abe30"/><rect y="8" width="2" height="2" style="fill:#6abe30"/><rect x="2" y="8" width="2" height="2" style="fill:#6abe30"/><rect x="4" y="8" width="2" height="2" style="fill:#6abe30"/><rect x="6" y="8" width="2" height="2" style="fill:#6abe30"/><rect x="16" y="8" width="2" height="2" style="fill:#6abe30"/><rect x="18" y="8" width="2" height="2" style="fill:#6abe30"/><rect x="20" y="8" width="2" height="2" style="fill:#6abe30"/><rect x="22" y="8" width="2" height="2" style="fill:#6abe30"/><rect y="10" width="2" height="2" style="fill:#6abe30"/><rect x="2" y="10" width="2" height="2" style="fill:#6abe30"/><rect x="16" y="10" width="2" height="2" style="fill:#6abe30"/><rect x="18" y="10" width="2" height="2" style="fill:#6abe30"/><rect x="20" y="10" width="2" height="2" style="fill:#6abe30"/><rect x="22" y="10" width="2" height="2" style="fill:#6abe30"/><rect x="24" y="10" width="2" height="2" style="fill:#6abe30"/><rect y="12" width="2" height="2" style="fill:#6abe30"/><rect x="10" y="12" width="2" height="2" style="fill:#cbdbfc"/><rect x="20" y="12" width="2" height="2" style="fill:#6abe30"/><rect x="22" y="12" width="2" height="2" style="fill:#6abe30"/><rect x="24" y="12" width="2" height="2" style="fill:#6abe30"/><rect x="26" y="12" width="2" height="2" style="fill:#6abe30"/><rect x="28" y="12" width="2" height="2" style="fill:#6abe30"/><rect x="12" y="14" width="2" height="2" style="fill:#cbdbfc"/><rect x="14" y="14" width="2" height="2" style="fill:#cbdbfc"/></g></g></g></g></svg>