<?xml version="1.0" encoding="utf-8"?>
<!-- Generator: Adobe Illustrator 16.0.0, SVG Export Plug-In . SVG Version: 6.00 Build 0)  -->
<!DOCTYPE svg PUBLIC "-//W3C//DTD SVG 1.1//EN" "http://www.w3.org/Graphics/SVG/1.1/DTD/svg11.dtd">
<svg version="1.1" id="Layer_1" xmlns="http://www.w3.org/2000/svg" xmlns:xlink="http://www.w3.org/1999/xlink" x="0px" y="0px"
	 width="138.064px" height="60.133px" viewBox="0 0 138.064 60.133" enable-background="new 0 0 138.064 60.133"
	 xml:space="preserve">
<g>
	<g>
		<g>
			<path fill="#FFFFFF" d="M9.001,59.98H7.927L6.89,57.642H2.073L1.024,59.98H0l4.033-8.913h0.936L9.001,59.98z M4.488,52.243
				l-2.023,4.514h4.033L4.488,52.243z"/>
			<path fill="#FFFFFF" d="M22.29,56.2c0,0.649-0.088,1.219-0.266,1.707c-0.177,0.489-0.428,0.897-0.752,1.227
				c-0.324,0.329-0.712,0.575-1.163,0.739c-0.451,0.164-0.955,0.247-1.511,0.247c-0.548,0-1.047-0.083-1.498-0.247
				c-0.451-0.164-0.839-0.408-1.163-0.733c-0.325-0.324-0.575-0.727-0.752-1.207c-0.177-0.48-0.265-1.032-0.265-1.656v-5.146h0.999
				v5.082c0,0.961,0.238,1.699,0.714,2.213s1.14,0.771,1.991,0.771c0.817,0,1.467-0.245,1.947-0.733
				c0.48-0.489,0.721-1.218,0.721-2.188v-5.146h0.999V56.2z"/>
			<path fill="#FFFFFF" d="M32.618,59.98h-0.999v-7.927h-2.971v-0.923h6.941v0.923h-2.971V59.98z"/>
			<path fill="#FFFFFF" d="M49.8,57.294c-0.219,0.553-0.527,1.039-0.923,1.46c-0.396,0.422-0.873,0.757-1.429,1.006
				c-0.557,0.248-1.172,0.373-1.846,0.373s-1.288-0.123-1.839-0.367c-0.552-0.244-1.026-0.575-1.422-0.992s-0.702-0.902-0.917-1.454
				s-0.322-1.136-0.322-1.751s0.109-1.199,0.329-1.751s0.526-1.039,0.923-1.46c0.396-0.422,0.873-0.757,1.429-1.006
				c0.556-0.248,1.171-0.373,1.846-0.373s1.288,0.123,1.84,0.367c0.552,0.244,1.026,0.575,1.422,0.992
				c0.396,0.418,0.702,0.902,0.917,1.454c0.215,0.552,0.322,1.136,0.322,1.751S50.019,56.742,49.8,57.294z M48.833,54.14
				c-0.173-0.446-0.416-0.834-0.727-1.163c-0.312-0.328-0.681-0.59-1.106-0.784c-0.425-0.193-0.891-0.29-1.397-0.29
				c-0.505,0-0.971,0.095-1.397,0.284s-0.79,0.448-1.093,0.777c-0.304,0.329-0.542,0.715-0.714,1.157
				c-0.173,0.442-0.259,0.916-0.259,1.422s0.086,0.982,0.259,1.429c0.172,0.447,0.415,0.835,0.727,1.163
				c0.312,0.329,0.681,0.59,1.106,0.784c0.425,0.193,0.891,0.29,1.397,0.29s0.971-0.095,1.397-0.284s0.791-0.448,1.094-0.777
				s0.542-0.714,0.714-1.157c0.172-0.442,0.259-0.916,0.259-1.422S49.005,54.587,48.833,54.14z"/>
			<path fill="#FFFFFF" d="M61.115,57.554h-0.05l-3.224-4.729v7.155h-0.974v-8.85h1.012l3.224,4.829l3.224-4.829h1.011v8.85h-0.998
				v-7.168L61.115,57.554z"/>
			<path fill="#FFFFFF" d="M80.711,59.98h-1.075L78.6,57.642h-4.817l-1.049,2.339H71.71l4.032-8.913h0.937L80.711,59.98z
				 M76.198,52.243l-2.023,4.514h4.033L76.198,52.243z"/>
			<path fill="#FFFFFF" d="M89.283,59.98h-0.999v-7.927h-2.971v-0.923h6.941v0.923h-2.972V59.98z"/>
			<path fill="#FFFFFF" d="M99.853,51.131v8.85h-0.999v-8.85H99.853z"/>
			<path fill="#FFFFFF" d="M115.378,57.294c-0.22,0.553-0.527,1.039-0.924,1.46c-0.396,0.422-0.872,0.757-1.428,1.006
				c-0.557,0.248-1.172,0.373-1.847,0.373s-1.288-0.123-1.839-0.367c-0.553-0.244-1.027-0.575-1.423-0.992s-0.702-0.902-0.917-1.454
				s-0.322-1.136-0.322-1.751s0.109-1.199,0.329-1.751s0.526-1.039,0.923-1.46c0.396-0.422,0.873-0.757,1.429-1.006
				c0.556-0.248,1.171-0.373,1.846-0.373s1.288,0.123,1.84,0.367s1.026,0.575,1.422,0.992c0.396,0.418,0.702,0.902,0.917,1.454
				s0.322,1.136,0.322,1.751S115.597,56.742,115.378,57.294z M114.41,54.14c-0.173-0.446-0.415-0.834-0.728-1.163
				c-0.312-0.328-0.68-0.59-1.105-0.784c-0.426-0.193-0.892-0.29-1.397-0.29c-0.505,0-0.972,0.095-1.397,0.284
				s-0.789,0.448-1.093,0.777s-0.542,0.715-0.714,1.157c-0.174,0.442-0.26,0.916-0.26,1.422s0.086,0.982,0.26,1.429
				c0.172,0.447,0.414,0.835,0.727,1.163c0.312,0.329,0.68,0.59,1.105,0.784c0.426,0.193,0.892,0.29,1.397,0.29
				s0.972-0.095,1.397-0.284s0.79-0.448,1.094-0.777c0.303-0.329,0.541-0.714,0.714-1.157c0.173-0.442,0.259-0.916,0.259-1.422
				S114.583,54.587,114.41,54.14z"/>
			<path fill="#FFFFFF" d="M128.956,51.131h0.973v8.85h-0.797l-5.714-7.257v7.257h-0.974v-8.85h0.936l5.576,7.093V51.131z"/>
		</g>
	</g>
	<path fill="#FFFFFF" d="M21.929,17.995c-0.622,1.183-1.464,2.175-2.525,2.974c-1.062,0.8-2.3,1.397-3.715,1.799
		c-1.415,0.398-3.665,0.545-3.665,0.545c-0.459,0.031-1.209,0.054-1.671,0.054H4.81c-0.46,0-0.835,0.376-0.835,0.836v8.534
		c0,0.459-0.377,0.834-0.838,0.834H1.455c-0.458,0-0.833-0.375-0.833-0.834V5.482c0-0.458,0.376-0.834,0.833-0.834h10.288
		c1.668,0,3.19,0.215,4.562,0.641c1.373,0.428,2.546,1.034,3.525,1.818c0.974,0.782,1.725,1.75,2.249,2.888
		c0.521,1.148,0.787,2.435,0.787,3.867C22.865,15.432,22.551,16.809,21.929,17.995z M17.318,9.253
		c-1.462-1.059-4.981-1.488-4.981-1.488c-0.455-0.056-1.206-0.099-1.665-0.099H4.81c-0.46,0-0.835,0.374-0.835,0.833v11.056
		c0,0.458,0.375,0.838,0.835,0.838h6.528c1.218,0,2.334-0.153,3.338-0.458c1.007-0.304,1.875-0.734,2.598-1.301
		c0.724-0.563,1.276-1.242,1.66-2.025c0.384-0.781,0.576-1.658,0.576-2.623C19.51,11.894,18.779,10.313,17.318,9.253z"/>
	<path fill="#FFFFFF" d="M44.526,4.648c0.459,0,0.835,0.376,0.835,0.834v27.254c0,0.459-0.376,0.834-0.835,0.834h-1.684
		c-0.458,0-0.835-0.375-0.835-0.834V5.482c0-0.458,0.377-0.834,0.835-0.834H44.526z"/>
	<path fill="#FFFFFF" d="M88.106,17.995c-0.623,1.183-1.466,2.175-2.525,2.974c-1.061,0.8-2.301,1.397-3.715,1.799
		c-1.418,0.398-3.666,0.545-3.666,0.545c-0.459,0.031-1.209,0.054-1.669,0.054h-5.546c-0.46,0-0.836,0.376-0.836,0.836v8.534
		c0,0.459-0.375,0.834-0.836,0.834h-1.682c-0.459,0-0.837-0.375-0.837-0.834V5.482c0-0.458,0.378-0.834,0.837-0.834h10.287
		c1.67,0,3.189,0.215,4.564,0.641c1.371,0.428,2.546,1.034,3.521,1.818c0.977,0.782,1.725,1.75,2.252,2.888
		c0.521,1.148,0.781,2.435,0.781,3.867C89.038,15.432,88.727,16.809,88.106,17.995z M83.493,9.253
		c-1.461-1.059-4.979-1.488-4.979-1.488c-0.456-0.056-1.206-0.099-1.664-0.099h-5.864c-0.46,0-0.836,0.374-0.836,0.833v11.056
		c0,0.458,0.376,0.838,0.836,0.838h6.53c1.218,0,2.332-0.153,3.34-0.458c1.007-0.304,1.874-0.734,2.595-1.301
		c0.725-0.563,1.278-1.242,1.662-2.025c0.383-0.781,0.574-1.658,0.574-2.623C85.687,11.894,84.956,10.313,83.493,9.253z"/>
	<g>
		<path fill="#FFFFFF" d="M103.192,8.026c-0.471,0-0.857-0.387-0.857-0.857V5.915c0-0.471,0.387-0.858,0.857-0.858h22.074
			c0.471,0,0.857,0.388,0.857,0.858v0.536c0,0.471-0.244,1.157-0.54,1.524l-18.701,23.133c-0.297,0.367-0.153,0.668,0.318,0.668
			h18.065c0.471,0,0.857,0.386,0.857,0.856v1.253c0,0.475-0.387,0.857-0.857,0.857H102.54c-0.472,0-0.858-0.383-0.858-0.857v-0.534
			c0-0.473,0.241-1.157,0.538-1.525l18.659-23.133c0.297-0.367,0.153-0.667-0.318-0.667H103.192z"/>
	</g>
	<path fill="#4BC6E4" stroke="#455B65" stroke-width="2.1419" stroke-miterlimit="10" d="M128.852,36.832
		c0,0.666-0.537,1.203-1.202,1.203h-6.883c-0.664,0-1.201-0.537-1.201-1.203v-6.883c0-0.664,0.537-1.201,1.201-1.201h6.883
		c0.665,0,1.202,0.537,1.202,1.201V36.832z"/>
	
		<circle fill="#FEBD11" stroke="#455B65" stroke-width="2.1103" stroke-linecap="round" stroke-linejoin="round" stroke-miterlimit="10" cx="104.453" cy="6.425" r="5.37"/>
	<g>
		<g>
			<path fill="#FFFFFF" d="M131.563,4.319h-0.487V0.451h-1.45v-0.45h3.387v0.45h-1.449V4.319z"/>
			<path fill="#FFFFFF" d="M136.005,3.134h-0.025l-1.572-2.307v3.491h-0.475V0.001h0.492l1.573,2.356l1.573-2.356h0.493v4.318
				h-0.487V0.821L136.005,3.134z"/>
		</g>
	</g>
</g>
</svg>
